<svg xmlns="http://www.w3.org/2000/svg" viewBox="0 0 192 192">
  <defs>
    <linearGradient id="goldGrad" x1="0%" y1="0%" x2="100%" y2="100%">
      <stop offset="0%" style="stop-color:#e6c068;stop-opacity:1" />
      <stop offset="50%" style="stop-color:#c9a961;stop-opacity:1" />
      <stop offset="100%" style="stop-color:#b8935a;stop-opacity:1" />
    </linearGradient>
    <radialGradient id="bgGrad" cx="50%" cy="50%" r="50%">
      <stop offset="0%" style="stop-color:#1a2332;stop-opacity:1" />
      <stop offset="100%" style="stop-color:#0f1419;stop-opacity:1" />
    </radialGradient>
  </defs>
  
  <rect width="192" height="192" fill="url(#bgGrad)" rx="35"/>
  
  <path d="M 96 38 C 71 38 51 58 51 83 C 51 108 71 128 96 128 C 103 128 110 126 116 123 C 101 118 91 104 91 88 C 91 67 107 51 128 51 C 132 51 136 51 140 52 C 133 43 115 38 96 38 Z" 
        fill="url(#goldGrad)" 
        stroke="#e6c068" 
        stroke-width="1"/>
  
  <path d="M 146 68 L 150 77 L 159 77 L 152 83 L 156 92 L 146 86 L 138 92 L 141 83 L 133 77 L 143 77 Z" 
        fill="url(#goldGrad)" 
        stroke="#e6c068" 
        stroke-width="0.5"/>
  
  <circle cx="56" r="1.5" fill="#c9a961" opacity="0.6"/>
  <circle cx="67" cy="150" r="1" fill="#c9a961" opacity="0.5"/>
  <circle cx="135" cy="135" r="1" fill="#c9a961" opacity="0.5"/>
  <circle cx="142" cy="146" r="1.5" fill="#c9a961" opacity="0.6"/>
  
  <text x="96" y="162" 
        font-family="Georgia, serif" 
        font-size="34" 
        font-weight="bold" 
        fill="url(#goldGrad)" 
        text-anchor="middle"
        letter-spacing="1">İFTAR</text>
  <text x="96" y="178" 
        font-family="Georgia, serif" 
        font-size="19" 
        font-weight="normal" 
        fill="#c9a961" 
        text-anchor="middle"
        opacity="0.9"
        letter-spacing="2">VAKTİ</text>
</svg>
