<svg xmlns="http://www.w3.org/2000/svg" viewBox="0 0 512 512">
  <defs>
    <linearGradient id="goldGradient" x1="0%" y1="0%" x2="100%" y2="100%">
      <stop offset="0%" style="stop-color:#d4af37;stop-opacity:1" />
      <stop offset="100%" style="stop-color:#c9a961;stop-opacity:1" />
    </linearGradient>
  </defs>
  <rect width="512" height="512" fill="#0f1419" rx="80"/>
  <path d="M 256 80 C 200 80 150 130 150 186 C 150 242 200 292 256 292 C 270 292 283 289 295 284 C 265 274 243 245 243 211 C 243 167 278 132 322 132 C 330 132 338 133 345 135 C 330 102 296 80 256 80 Z" fill="url(#goldGradient)"/>
  <path d="M 380 200 L 390 230 L 420 230 L 396 248 L 406 278 L 380 260 L 354 278 L 364 248 L 340 230 L 370 230 Z" fill="url(#goldGradient)"/>
  <text x="256" y="380" font-family="Arial, sans-serif" font-size="120" font-weight="bold" fill="url(#goldGradient)" text-anchor="middle">İV</text>
</svg>
